<mxfile host="app.diagrams.net" modified="2024-04-11T09:42:56.091Z" agent="Mozilla/5.0 (Windows NT 10.0; Win64; x64) AppleWebKit/537.36 (KHTML, like Gecko) Chrome/123.0.0.0 Safari/537.36" etag="In3tL1iYLP9F28vyTmF9" version="24.2.3" type="github">
  <diagram name="Page-1" id="b5b7bab2-c9e2-2cf4-8b2a-24fd1a2a6d21">
    <mxGraphModel dx="1877" dy="522" grid="1" gridSize="10" guides="1" tooltips="1" connect="1" arrows="1" fold="1" page="1" pageScale="1" pageWidth="827" pageHeight="1169" background="none" math="0" shadow="0">
      <root>
        <mxCell id="0" />
        <mxCell id="1" parent="0" />
        <mxCell id="E3f_pJLwGpMYrvsGHU3P-51" value="" style="group" parent="1" vertex="1" connectable="0">
          <mxGeometry x="-519" y="353" width="570" height="74" as="geometry" />
        </mxCell>
        <mxCell id="E3f_pJLwGpMYrvsGHU3P-52" value="" style="group" parent="E3f_pJLwGpMYrvsGHU3P-51" vertex="1" connectable="0">
          <mxGeometry width="570" height="74" as="geometry" />
        </mxCell>
        <mxCell id="E3f_pJLwGpMYrvsGHU3P-53" value="" style="shape=folder;fontStyle=1;spacingTop=10;tabWidth=120;tabHeight=16;tabPosition=left;html=1;whiteSpace=wrap;" parent="E3f_pJLwGpMYrvsGHU3P-52" vertex="1">
          <mxGeometry y="4" width="549" height="70" as="geometry" />
        </mxCell>
        <mxCell id="E3f_pJLwGpMYrvsGHU3P-54" value="Executable code" style="text;html=1;align=center;verticalAlign=middle;resizable=0;points=[];autosize=1;strokeColor=none;fillColor=none;" parent="E3f_pJLwGpMYrvsGHU3P-52" vertex="1">
          <mxGeometry x="-6.41049671977507" y="-3" width="110" height="30" as="geometry" />
        </mxCell>
        <mxCell id="E3f_pJLwGpMYrvsGHU3P-55" value="&lt;p style=&quot;margin:0px;margin-top:6px;text-align:center;&quot;&gt;&lt;span style=&quot;background-color: initial;&quot;&gt;Client Application&lt;/span&gt;&lt;br&gt;&lt;/p&gt;" style="align=left;overflow=fill;html=1;dropTarget=0;whiteSpace=wrap;" parent="E3f_pJLwGpMYrvsGHU3P-52" vertex="1">
          <mxGeometry x="370.00342080599813" y="30" width="170.94657919400188" height="30" as="geometry" />
        </mxCell>
        <mxCell id="E3f_pJLwGpMYrvsGHU3P-56" value="" style="shape=component;jettyWidth=8;jettyHeight=4;" parent="E3f_pJLwGpMYrvsGHU3P-55" vertex="1">
          <mxGeometry x="1" width="20" height="20" relative="1" as="geometry">
            <mxPoint x="-24" y="4" as="offset" />
          </mxGeometry>
        </mxCell>
        <mxCell id="E3f_pJLwGpMYrvsGHU3P-57" value="&lt;p style=&quot;margin:0px;margin-top:6px;text-align:center;&quot;&gt;&lt;span style=&quot;background-color: initial;&quot;&gt;Server Application&lt;/span&gt;&lt;br&gt;&lt;/p&gt;" style="align=left;overflow=fill;html=1;dropTarget=0;whiteSpace=wrap;" parent="E3f_pJLwGpMYrvsGHU3P-51" vertex="1">
          <mxGeometry x="10" y="30" width="160" height="30" as="geometry" />
        </mxCell>
        <mxCell id="E3f_pJLwGpMYrvsGHU3P-58" value="" style="shape=component;jettyWidth=8;jettyHeight=4;" parent="E3f_pJLwGpMYrvsGHU3P-57" vertex="1">
          <mxGeometry x="1" width="20" height="20" relative="1" as="geometry">
            <mxPoint x="-24" y="4" as="offset" />
          </mxGeometry>
        </mxCell>
        <mxCell id="E3f_pJLwGpMYrvsGHU3P-59" value="&lt;p style=&quot;margin:0px;margin-top:6px;text-align:center;&quot;&gt;&lt;span style=&quot;background-color: initial;&quot;&gt;Database Deployment&lt;/span&gt;&lt;br&gt;&lt;/p&gt;" style="align=left;overflow=fill;html=1;dropTarget=0;whiteSpace=wrap;" parent="E3f_pJLwGpMYrvsGHU3P-51" vertex="1">
          <mxGeometry x="180" y="30" width="180" height="30" as="geometry" />
        </mxCell>
        <mxCell id="E3f_pJLwGpMYrvsGHU3P-60" value="" style="shape=component;jettyWidth=8;jettyHeight=4;" parent="E3f_pJLwGpMYrvsGHU3P-59" vertex="1">
          <mxGeometry x="1" width="20" height="20" relative="1" as="geometry">
            <mxPoint x="-24" y="4" as="offset" />
          </mxGeometry>
        </mxCell>
        <mxCell id="E3f_pJLwGpMYrvsGHU3P-64" value="" style="group" parent="1" vertex="1" connectable="0">
          <mxGeometry x="-600" y="470" width="1090" height="74" as="geometry" />
        </mxCell>
        <mxCell id="E3f_pJLwGpMYrvsGHU3P-120" value="" style="group" parent="E3f_pJLwGpMYrvsGHU3P-64" vertex="1" connectable="0">
          <mxGeometry x="-0.6587022675076373" y="-3" width="1050.5008075306653" height="77" as="geometry" />
        </mxCell>
        <mxCell id="E3f_pJLwGpMYrvsGHU3P-65" value="" style="shape=folder;fontStyle=1;spacingTop=10;tabWidth=120;tabHeight=16;tabPosition=left;html=1;whiteSpace=wrap;" parent="E3f_pJLwGpMYrvsGHU3P-120" vertex="1">
          <mxGeometry x="0.66" y="7" width="989.34" height="70" as="geometry" />
        </mxCell>
        <mxCell id="E3f_pJLwGpMYrvsGHU3P-66" value="User Interface" style="text;html=1;align=center;verticalAlign=middle;resizable=0;points=[];autosize=1;strokeColor=none;fillColor=none;" parent="E3f_pJLwGpMYrvsGHU3P-120" vertex="1">
          <mxGeometry width="100" height="30" as="geometry" />
        </mxCell>
        <mxCell id="E3f_pJLwGpMYrvsGHU3P-103" value="&lt;p style=&quot;margin:0px;margin-top:6px;text-align:center;&quot;&gt;&lt;span style=&quot;background-color: initial;&quot;&gt;Video Call&lt;/span&gt;&lt;br&gt;&lt;/p&gt;" style="align=left;overflow=fill;html=1;dropTarget=0;whiteSpace=wrap;" parent="E3f_pJLwGpMYrvsGHU3P-120" vertex="1">
          <mxGeometry x="863.5739714982768" y="35" width="120.35416666666667" height="30" as="geometry" />
        </mxCell>
        <mxCell id="E3f_pJLwGpMYrvsGHU3P-104" value="" style="shape=component;jettyWidth=8;jettyHeight=4;" parent="E3f_pJLwGpMYrvsGHU3P-103" vertex="1">
          <mxGeometry x="1" width="20" height="20" relative="1" as="geometry">
            <mxPoint x="-24" y="4" as="offset" />
          </mxGeometry>
        </mxCell>
        <mxCell id="E3f_pJLwGpMYrvsGHU3P-105" value="&lt;p style=&quot;margin:0px;margin-top:6px;text-align:center;&quot;&gt;&lt;span style=&quot;background-color: initial;&quot;&gt;Audio Call&lt;/span&gt;&lt;br&gt;&lt;/p&gt;" style="align=left;overflow=fill;html=1;dropTarget=0;whiteSpace=wrap;" parent="E3f_pJLwGpMYrvsGHU3P-120" vertex="1">
          <mxGeometry x="730.818958677764" y="35" width="120.35416666666667" height="30" as="geometry" />
        </mxCell>
        <mxCell id="E3f_pJLwGpMYrvsGHU3P-106" value="" style="shape=component;jettyWidth=8;jettyHeight=4;" parent="E3f_pJLwGpMYrvsGHU3P-105" vertex="1">
          <mxGeometry x="1" width="20" height="20" relative="1" as="geometry">
            <mxPoint x="-24" y="4" as="offset" />
          </mxGeometry>
        </mxCell>
        <mxCell id="E3f_pJLwGpMYrvsGHU3P-107" value="&lt;p style=&quot;margin:0px;margin-top:6px;text-align:center;&quot;&gt;&lt;span style=&quot;background-color: initial;&quot;&gt;Profile Management&lt;/span&gt;&lt;br&gt;&lt;/p&gt;" style="align=left;overflow=fill;html=1;dropTarget=0;whiteSpace=wrap;" parent="E3f_pJLwGpMYrvsGHU3P-120" vertex="1">
          <mxGeometry x="9.744131754687114" y="35" width="157.38621794871793" height="30" as="geometry" />
        </mxCell>
        <mxCell id="E3f_pJLwGpMYrvsGHU3P-108" value="" style="shape=component;jettyWidth=8;jettyHeight=4;" parent="E3f_pJLwGpMYrvsGHU3P-107" vertex="1">
          <mxGeometry x="1" width="20" height="20" relative="1" as="geometry">
            <mxPoint x="-24" y="4" as="offset" />
          </mxGeometry>
        </mxCell>
        <mxCell id="E3f_pJLwGpMYrvsGHU3P-109" value="&lt;p style=&quot;margin:0px;margin-top:6px;text-align:center;&quot;&gt;&lt;span style=&quot;background-color: initial;&quot;&gt;Authentication Page&lt;/span&gt;&lt;br&gt;&lt;/p&gt;" style="align=left;overflow=fill;html=1;dropTarget=0;whiteSpace=wrap;" parent="E3f_pJLwGpMYrvsGHU3P-120" vertex="1">
          <mxGeometry x="176.38836252391786" y="35" width="157.38621794871793" height="30" as="geometry" />
        </mxCell>
        <mxCell id="E3f_pJLwGpMYrvsGHU3P-110" value="" style="shape=component;jettyWidth=8;jettyHeight=4;" parent="E3f_pJLwGpMYrvsGHU3P-109" vertex="1">
          <mxGeometry x="1" width="20" height="20" relative="1" as="geometry">
            <mxPoint x="-24" y="4" as="offset" />
          </mxGeometry>
        </mxCell>
        <mxCell id="E3f_pJLwGpMYrvsGHU3P-111" value="&lt;p style=&quot;margin:0px;margin-top:6px;text-align:center;&quot;&gt;&lt;span style=&quot;background-color: initial;&quot;&gt;Server Management Interface&lt;/span&gt;&lt;br&gt;&lt;/p&gt;" style="align=left;overflow=fill;html=1;dropTarget=0;whiteSpace=wrap;" parent="E3f_pJLwGpMYrvsGHU3P-120" vertex="1">
          <mxGeometry x="343.0367856008409" y="35" width="211.70524999999998" height="30" as="geometry" />
        </mxCell>
        <mxCell id="E3f_pJLwGpMYrvsGHU3P-112" value="" style="shape=component;jettyWidth=8;jettyHeight=4;" parent="E3f_pJLwGpMYrvsGHU3P-111" vertex="1">
          <mxGeometry x="1" width="20" height="20" relative="1" as="geometry">
            <mxPoint x="-24" y="4" as="offset" />
          </mxGeometry>
        </mxCell>
        <mxCell id="E3f_pJLwGpMYrvsGHU3P-113" value="&lt;p style=&quot;margin:0px;margin-top:6px;text-align:center;&quot;&gt;&lt;span style=&quot;background-color: initial;&quot;&gt;Messaging Interface&lt;/span&gt;&lt;br&gt;&lt;/p&gt;" style="align=left;overflow=fill;html=1;dropTarget=0;whiteSpace=wrap;" parent="E3f_pJLwGpMYrvsGHU3P-120" vertex="1">
          <mxGeometry x="565.0851573957128" y="35" width="157.38621794871793" height="30" as="geometry" />
        </mxCell>
        <mxCell id="E3f_pJLwGpMYrvsGHU3P-114" value="" style="shape=component;jettyWidth=8;jettyHeight=4;" parent="E3f_pJLwGpMYrvsGHU3P-113" vertex="1">
          <mxGeometry x="1" width="20" height="20" relative="1" as="geometry">
            <mxPoint x="-24" y="4" as="offset" />
          </mxGeometry>
        </mxCell>
        <mxCell id="E3f_pJLwGpMYrvsGHU3P-101" value="" style="edgeStyle=orthogonalEdgeStyle;rounded=0;orthogonalLoop=1;jettySize=auto;html=1;" parent="1" edge="1">
          <mxGeometry relative="1" as="geometry">
            <mxPoint x="1326.3461538461543" y="435" as="targetPoint" />
          </mxGeometry>
        </mxCell>
        <mxCell id="E3f_pJLwGpMYrvsGHU3P-116" value="" style="group" parent="1" vertex="1" connectable="0">
          <mxGeometry x="281.9957731958764" y="854" width="162.4742268041237" height="77" as="geometry" />
        </mxCell>
        <mxCell id="E3f_pJLwGpMYrvsGHU3P-17" value="" style="shape=folder;fontStyle=1;spacingTop=10;tabWidth=140;tabHeight=16;tabPosition=left;html=1;whiteSpace=wrap;" parent="E3f_pJLwGpMYrvsGHU3P-116" vertex="1">
          <mxGeometry x="2.4742268041237097" y="7" width="160" height="70" as="geometry" />
        </mxCell>
        <mxCell id="E3f_pJLwGpMYrvsGHU3P-18" value="Database Subsystem" style="text;html=1;align=center;verticalAlign=middle;resizable=0;points=[];autosize=1;strokeColor=none;fillColor=none;" parent="E3f_pJLwGpMYrvsGHU3P-116" vertex="1">
          <mxGeometry width="140" height="30" as="geometry" />
        </mxCell>
        <mxCell id="E3f_pJLwGpMYrvsGHU3P-61" value="&lt;p style=&quot;margin:0px;margin-top:6px;text-align:center;&quot;&gt;&lt;span style=&quot;background-color: initial;&quot;&gt;Database&lt;/span&gt;&lt;br&gt;&lt;/p&gt;" style="align=left;overflow=fill;html=1;dropTarget=0;whiteSpace=wrap;" parent="E3f_pJLwGpMYrvsGHU3P-116" vertex="1">
          <mxGeometry x="18.00422680412371" y="33" width="130" height="30" as="geometry" />
        </mxCell>
        <mxCell id="E3f_pJLwGpMYrvsGHU3P-62" value="" style="shape=component;jettyWidth=8;jettyHeight=4;" parent="E3f_pJLwGpMYrvsGHU3P-61" vertex="1">
          <mxGeometry x="1" width="20" height="20" relative="1" as="geometry">
            <mxPoint x="-24" y="4" as="offset" />
          </mxGeometry>
        </mxCell>
        <mxCell id="E3f_pJLwGpMYrvsGHU3P-119" value="" style="group" parent="1" vertex="1" connectable="0">
          <mxGeometry x="-503" y="100" width="520" height="74" as="geometry" />
        </mxCell>
        <mxCell id="E3f_pJLwGpMYrvsGHU3P-15" value="" style="group" parent="E3f_pJLwGpMYrvsGHU3P-119" vertex="1" connectable="0">
          <mxGeometry width="520" height="74" as="geometry" />
        </mxCell>
        <mxCell id="E3f_pJLwGpMYrvsGHU3P-3" value="" style="shape=folder;fontStyle=1;spacingTop=10;tabWidth=90;tabHeight=20;tabPosition=left;html=1;whiteSpace=wrap;" parent="E3f_pJLwGpMYrvsGHU3P-15" vertex="1">
          <mxGeometry y="4" width="520" height="70" as="geometry" />
        </mxCell>
        <mxCell id="E3f_pJLwGpMYrvsGHU3P-14" value="Source Code" style="text;html=1;align=center;verticalAlign=middle;resizable=0;points=[];autosize=1;strokeColor=none;fillColor=none;" parent="E3f_pJLwGpMYrvsGHU3P-15" vertex="1">
          <mxGeometry width="90" height="30" as="geometry" />
        </mxCell>
        <mxCell id="E3f_pJLwGpMYrvsGHU3P-4" value="&lt;p style=&quot;margin:0px;margin-top:6px;text-align:center;&quot;&gt;&lt;span style=&quot;background-color: initial;&quot;&gt;Database Scripts&lt;/span&gt;&lt;br&gt;&lt;/p&gt;" style="align=left;overflow=fill;html=1;dropTarget=0;whiteSpace=wrap;" parent="E3f_pJLwGpMYrvsGHU3P-119" vertex="1">
          <mxGeometry x="10" y="30" width="160" height="30" as="geometry" />
        </mxCell>
        <mxCell id="E3f_pJLwGpMYrvsGHU3P-5" value="" style="shape=component;jettyWidth=8;jettyHeight=4;" parent="E3f_pJLwGpMYrvsGHU3P-4" vertex="1">
          <mxGeometry x="1" width="20" height="20" relative="1" as="geometry">
            <mxPoint x="-24" y="4" as="offset" />
          </mxGeometry>
        </mxCell>
        <mxCell id="E3f_pJLwGpMYrvsGHU3P-10" value="&lt;p style=&quot;margin:0px;margin-top:6px;text-align:center;&quot;&gt;&lt;span style=&quot;background-color: initial;&quot;&gt;Frontend Code&lt;/span&gt;&lt;br&gt;&lt;/p&gt;" style="align=left;overflow=fill;html=1;dropTarget=0;whiteSpace=wrap;" parent="E3f_pJLwGpMYrvsGHU3P-119" vertex="1">
          <mxGeometry x="180" y="30" width="160" height="30" as="geometry" />
        </mxCell>
        <mxCell id="E3f_pJLwGpMYrvsGHU3P-11" value="" style="shape=component;jettyWidth=8;jettyHeight=4;" parent="E3f_pJLwGpMYrvsGHU3P-10" vertex="1">
          <mxGeometry x="1" width="20" height="20" relative="1" as="geometry">
            <mxPoint x="-24" y="4" as="offset" />
          </mxGeometry>
        </mxCell>
        <mxCell id="E3f_pJLwGpMYrvsGHU3P-12" value="&lt;p style=&quot;margin:0px;margin-top:6px;text-align:center;&quot;&gt;&lt;span style=&quot;background-color: initial;&quot;&gt;Backend Code&lt;/span&gt;&lt;br&gt;&lt;/p&gt;" style="align=left;overflow=fill;html=1;dropTarget=0;whiteSpace=wrap;" parent="E3f_pJLwGpMYrvsGHU3P-119" vertex="1">
          <mxGeometry x="350" y="30" width="160" height="30" as="geometry" />
        </mxCell>
        <mxCell id="E3f_pJLwGpMYrvsGHU3P-13" value="" style="shape=component;jettyWidth=8;jettyHeight=4;" parent="E3f_pJLwGpMYrvsGHU3P-12" vertex="1">
          <mxGeometry x="1" width="20" height="20" relative="1" as="geometry">
            <mxPoint x="-24" y="4" as="offset" />
          </mxGeometry>
        </mxCell>
        <mxCell id="E3f_pJLwGpMYrvsGHU3P-126" value="" style="group" parent="1" vertex="1" connectable="0">
          <mxGeometry x="-590" y="630" width="570" height="134" as="geometry" />
        </mxCell>
        <mxCell id="E3f_pJLwGpMYrvsGHU3P-31" value="" style="group" parent="E3f_pJLwGpMYrvsGHU3P-126" vertex="1" connectable="0">
          <mxGeometry y="60" width="570" height="74" as="geometry" />
        </mxCell>
        <mxCell id="E3f_pJLwGpMYrvsGHU3P-32" value="" style="group" parent="E3f_pJLwGpMYrvsGHU3P-31" vertex="1" connectable="0">
          <mxGeometry width="570" height="74" as="geometry" />
        </mxCell>
        <mxCell id="E3f_pJLwGpMYrvsGHU3P-33" value="" style="shape=folder;fontStyle=1;spacingTop=10;tabWidth=120;tabHeight=16;tabPosition=left;html=1;whiteSpace=wrap;" parent="E3f_pJLwGpMYrvsGHU3P-32" vertex="1">
          <mxGeometry y="4" width="549" height="70" as="geometry" />
        </mxCell>
        <mxCell id="E3f_pJLwGpMYrvsGHU3P-34" value="Backend subsystem" style="text;html=1;align=center;verticalAlign=middle;resizable=0;points=[];autosize=1;strokeColor=none;fillColor=none;" parent="E3f_pJLwGpMYrvsGHU3P-32" vertex="1">
          <mxGeometry x="-8.410496719775068" y="-3" width="130" height="30" as="geometry" />
        </mxCell>
        <mxCell id="E3f_pJLwGpMYrvsGHU3P-35" value="&lt;p style=&quot;margin:0px;margin-top:6px;text-align:center;&quot;&gt;&lt;span style=&quot;background-color: initial;&quot;&gt;Authentication System&lt;/span&gt;&lt;br&gt;&lt;/p&gt;" style="align=left;overflow=fill;html=1;dropTarget=0;whiteSpace=wrap;" parent="E3f_pJLwGpMYrvsGHU3P-32" vertex="1">
          <mxGeometry x="370" y="30" width="170" height="30" as="geometry" />
        </mxCell>
        <mxCell id="E3f_pJLwGpMYrvsGHU3P-36" value="" style="shape=component;jettyWidth=8;jettyHeight=4;" parent="E3f_pJLwGpMYrvsGHU3P-35" vertex="1">
          <mxGeometry x="1" width="20" height="20" relative="1" as="geometry">
            <mxPoint x="-24" y="4" as="offset" />
          </mxGeometry>
        </mxCell>
        <mxCell id="E3f_pJLwGpMYrvsGHU3P-37" value="&lt;p style=&quot;margin:0px;margin-top:6px;text-align:center;&quot;&gt;&lt;span style=&quot;background-color: initial;&quot;&gt;Server Management&lt;/span&gt;&lt;br&gt;&lt;/p&gt;" style="align=left;overflow=fill;html=1;dropTarget=0;whiteSpace=wrap;" parent="E3f_pJLwGpMYrvsGHU3P-31" vertex="1">
          <mxGeometry x="10" y="30" width="170" height="30" as="geometry" />
        </mxCell>
        <mxCell id="E3f_pJLwGpMYrvsGHU3P-38" value="" style="shape=component;jettyWidth=8;jettyHeight=4;" parent="E3f_pJLwGpMYrvsGHU3P-37" vertex="1">
          <mxGeometry x="1" width="20" height="20" relative="1" as="geometry">
            <mxPoint x="-24" y="4" as="offset" />
          </mxGeometry>
        </mxCell>
        <mxCell id="E3f_pJLwGpMYrvsGHU3P-39" value="&lt;p style=&quot;margin:0px;margin-top:6px;text-align:center;&quot;&gt;&lt;span style=&quot;background-color: initial;&quot;&gt;Messaging System&lt;/span&gt;&lt;br&gt;&lt;/p&gt;" style="align=left;overflow=fill;html=1;dropTarget=0;whiteSpace=wrap;" parent="E3f_pJLwGpMYrvsGHU3P-31" vertex="1">
          <mxGeometry x="185" y="30" width="180" height="30" as="geometry" />
        </mxCell>
        <mxCell id="E3f_pJLwGpMYrvsGHU3P-40" value="" style="shape=component;jettyWidth=8;jettyHeight=4;" parent="E3f_pJLwGpMYrvsGHU3P-39" vertex="1">
          <mxGeometry x="1" width="20" height="20" relative="1" as="geometry">
            <mxPoint x="-24" y="4" as="offset" />
          </mxGeometry>
        </mxCell>
        <mxCell id="E3f_pJLwGpMYrvsGHU3P-45" value="&lt;p style=&quot;margin:0px;margin-top:6px;text-align:center;&quot;&gt;&lt;span style=&quot;background-color: initial;&quot;&gt;Server&lt;/span&gt;&lt;br&gt;&lt;/p&gt;" style="align=left;overflow=fill;html=1;dropTarget=0;whiteSpace=wrap;" parent="E3f_pJLwGpMYrvsGHU3P-126" vertex="1">
          <mxGeometry x="15" width="130" height="30" as="geometry" />
        </mxCell>
        <mxCell id="E3f_pJLwGpMYrvsGHU3P-46" value="" style="shape=component;jettyWidth=8;jettyHeight=4;" parent="E3f_pJLwGpMYrvsGHU3P-45" vertex="1">
          <mxGeometry x="1" width="20" height="20" relative="1" as="geometry">
            <mxPoint x="-24" y="4" as="offset" />
          </mxGeometry>
        </mxCell>
        <mxCell id="E3f_pJLwGpMYrvsGHU3P-47" value="&lt;p style=&quot;margin:0px;margin-top:6px;text-align:center;&quot;&gt;&lt;span style=&quot;background-color: initial;&quot;&gt;Message&lt;/span&gt;&lt;br&gt;&lt;/p&gt;" style="align=left;overflow=fill;html=1;dropTarget=0;whiteSpace=wrap;" parent="E3f_pJLwGpMYrvsGHU3P-126" vertex="1">
          <mxGeometry x="205" width="130" height="30" as="geometry" />
        </mxCell>
        <mxCell id="E3f_pJLwGpMYrvsGHU3P-48" value="" style="shape=component;jettyWidth=8;jettyHeight=4;" parent="E3f_pJLwGpMYrvsGHU3P-47" vertex="1">
          <mxGeometry x="1" width="20" height="20" relative="1" as="geometry">
            <mxPoint x="-24" y="4" as="offset" />
          </mxGeometry>
        </mxCell>
        <mxCell id="E3f_pJLwGpMYrvsGHU3P-124" style="edgeStyle=orthogonalEdgeStyle;rounded=0;orthogonalLoop=1;jettySize=auto;html=1;exitX=0.5;exitY=1;exitDx=0;exitDy=0;entryX=0.467;entryY=0.037;entryDx=0;entryDy=0;entryPerimeter=0;" parent="E3f_pJLwGpMYrvsGHU3P-126" source="E3f_pJLwGpMYrvsGHU3P-47" target="E3f_pJLwGpMYrvsGHU3P-39" edge="1">
          <mxGeometry relative="1" as="geometry" />
        </mxCell>
        <mxCell id="E3f_pJLwGpMYrvsGHU3P-125" value="" style="endArrow=classic;html=1;rounded=0;exitX=0.936;exitY=1.022;exitDx=0;exitDy=0;exitPerimeter=0;entryX=0.75;entryY=0;entryDx=0;entryDy=0;" parent="E3f_pJLwGpMYrvsGHU3P-126" source="E3f_pJLwGpMYrvsGHU3P-45" target="E3f_pJLwGpMYrvsGHU3P-37" edge="1">
          <mxGeometry width="50" height="50" relative="1" as="geometry">
            <mxPoint x="190" y="79" as="sourcePoint" />
            <mxPoint x="240" y="29" as="targetPoint" />
          </mxGeometry>
        </mxCell>
        <mxCell id="E3f_pJLwGpMYrvsGHU3P-128" value="" style="endArrow=classic;html=1;rounded=0;exitX=0.5;exitY=1;exitDx=0;exitDy=0;entryX=0.25;entryY=0;entryDx=0;entryDy=0;" parent="1" source="E3f_pJLwGpMYrvsGHU3P-107" target="E3f_pJLwGpMYrvsGHU3P-35" edge="1">
          <mxGeometry width="50" height="50" relative="1" as="geometry">
            <mxPoint x="-300" y="730" as="sourcePoint" />
            <mxPoint x="-250" y="680" as="targetPoint" />
            <Array as="points">
              <mxPoint x="-513" y="614" />
              <mxPoint x="-313" y="614" />
              <mxPoint x="-177" y="614" />
            </Array>
          </mxGeometry>
        </mxCell>
        <mxCell id="5JTcb1zBLSCCbndkbw-K-1" value="Authorization" style="edgeLabel;html=1;align=center;verticalAlign=middle;resizable=0;points=[];" vertex="1" connectable="0" parent="E3f_pJLwGpMYrvsGHU3P-128">
          <mxGeometry x="-0.245" relative="1" as="geometry">
            <mxPoint as="offset" />
          </mxGeometry>
        </mxCell>
        <mxCell id="E3f_pJLwGpMYrvsGHU3P-134" style="edgeStyle=orthogonalEdgeStyle;rounded=0;orthogonalLoop=1;jettySize=auto;html=1;exitX=0;exitY=1;exitDx=0;exitDy=0;entryX=0.75;entryY=0;entryDx=0;entryDy=0;" parent="1" source="E3f_pJLwGpMYrvsGHU3P-131" target="E3f_pJLwGpMYrvsGHU3P-57" edge="1">
          <mxGeometry relative="1" as="geometry" />
        </mxCell>
        <mxCell id="E3f_pJLwGpMYrvsGHU3P-136" style="edgeStyle=orthogonalEdgeStyle;rounded=0;orthogonalLoop=1;jettySize=auto;html=1;exitX=1;exitY=1;exitDx=0;exitDy=0;entryX=0.25;entryY=0;entryDx=0;entryDy=0;" parent="1" source="E3f_pJLwGpMYrvsGHU3P-131" target="E3f_pJLwGpMYrvsGHU3P-55" edge="1">
          <mxGeometry relative="1" as="geometry" />
        </mxCell>
        <mxCell id="E3f_pJLwGpMYrvsGHU3P-131" value="" style="ellipse;html=1;shape=startState;fillColor=none;strokeColor=#000000;" parent="1" vertex="1">
          <mxGeometry x="-278" y="244" width="30" height="30" as="geometry" />
        </mxCell>
        <mxCell id="E3f_pJLwGpMYrvsGHU3P-138" style="edgeStyle=orthogonalEdgeStyle;rounded=0;orthogonalLoop=1;jettySize=auto;html=1;exitX=0.5;exitY=1;exitDx=0;exitDy=0;entryX=0;entryY=0.5;entryDx=0;entryDy=0;" parent="1" source="E3f_pJLwGpMYrvsGHU3P-4" target="E3f_pJLwGpMYrvsGHU3P-131" edge="1">
          <mxGeometry relative="1" as="geometry" />
        </mxCell>
        <mxCell id="E3f_pJLwGpMYrvsGHU3P-180" value="&lt;span style=&quot;text-wrap: wrap; background-color: rgb(251, 251, 251);&quot;&gt;HTTP Request&lt;/span&gt;" style="edgeLabel;html=1;align=center;verticalAlign=middle;resizable=0;points=[];" parent="E3f_pJLwGpMYrvsGHU3P-138" vertex="1" connectable="0">
          <mxGeometry x="-0.5237" y="-1" relative="1" as="geometry">
            <mxPoint as="offset" />
          </mxGeometry>
        </mxCell>
        <mxCell id="E3f_pJLwGpMYrvsGHU3P-145" value="" style="endArrow=classic;html=1;rounded=0;exitX=0.369;exitY=0.998;exitDx=0;exitDy=0;exitPerimeter=0;entryX=0.5;entryY=0;entryDx=0;entryDy=0;" parent="1" source="E3f_pJLwGpMYrvsGHU3P-10" target="E3f_pJLwGpMYrvsGHU3P-131" edge="1">
          <mxGeometry width="50" height="50" relative="1" as="geometry">
            <mxPoint x="-223" y="244" as="sourcePoint" />
            <mxPoint x="-173" y="194" as="targetPoint" />
          </mxGeometry>
        </mxCell>
        <mxCell id="E3f_pJLwGpMYrvsGHU3P-181" value="&lt;span style=&quot;text-wrap: wrap; background-color: rgb(251, 251, 251);&quot;&gt;HTTP Request&lt;/span&gt;" style="edgeLabel;html=1;align=center;verticalAlign=middle;resizable=0;points=[];" parent="E3f_pJLwGpMYrvsGHU3P-145" vertex="1" connectable="0">
          <mxGeometry x="0.2121" y="-1" relative="1" as="geometry">
            <mxPoint as="offset" />
          </mxGeometry>
        </mxCell>
        <mxCell id="E3f_pJLwGpMYrvsGHU3P-146" style="edgeStyle=orthogonalEdgeStyle;rounded=0;orthogonalLoop=1;jettySize=auto;html=1;exitX=0.5;exitY=1;exitDx=0;exitDy=0;entryX=1;entryY=0.5;entryDx=0;entryDy=0;" parent="1" source="E3f_pJLwGpMYrvsGHU3P-12" target="E3f_pJLwGpMYrvsGHU3P-131" edge="1">
          <mxGeometry relative="1" as="geometry" />
        </mxCell>
        <mxCell id="E3f_pJLwGpMYrvsGHU3P-182" value="&lt;span style=&quot;text-wrap: wrap; background-color: rgb(251, 251, 251);&quot;&gt;HTTP Request&lt;/span&gt;" style="edgeLabel;html=1;align=center;verticalAlign=middle;resizable=0;points=[];" parent="E3f_pJLwGpMYrvsGHU3P-146" vertex="1" connectable="0">
          <mxGeometry x="-0.6135" y="-2" relative="1" as="geometry">
            <mxPoint as="offset" />
          </mxGeometry>
        </mxCell>
        <mxCell id="E3f_pJLwGpMYrvsGHU3P-152" value="" style="endArrow=classic;html=1;rounded=0;exitX=0.5;exitY=1;exitDx=0;exitDy=0;entryX=0.427;entryY=0.04;entryDx=0;entryDy=0;entryPerimeter=0;" parent="1" source="E3f_pJLwGpMYrvsGHU3P-131" target="E3f_pJLwGpMYrvsGHU3P-59" edge="1">
          <mxGeometry relative="1" as="geometry">
            <mxPoint x="-357.62" y="304" as="sourcePoint" />
            <mxPoint x="-257.62" y="304" as="targetPoint" />
          </mxGeometry>
        </mxCell>
        <mxCell id="E3f_pJLwGpMYrvsGHU3P-153" value="Rest API" style="edgeLabel;resizable=0;html=1;;align=center;verticalAlign=middle;" parent="E3f_pJLwGpMYrvsGHU3P-152" connectable="0" vertex="1">
          <mxGeometry relative="1" as="geometry">
            <mxPoint x="29" y="-85" as="offset" />
          </mxGeometry>
        </mxCell>
        <mxCell id="E3f_pJLwGpMYrvsGHU3P-154" value="" style="ellipse;html=1;shape=startState;fillColor=none;strokeColor=#000000;" parent="1" vertex="1">
          <mxGeometry x="127" y="682" width="30" height="30" as="geometry" />
        </mxCell>
        <mxCell id="E3f_pJLwGpMYrvsGHU3P-157" value="" style="curved=1;endArrow=classic;html=1;rounded=0;exitX=0.5;exitY=1;exitDx=0;exitDy=0;entryX=1;entryY=0.5;entryDx=0;entryDy=0;" parent="1" source="E3f_pJLwGpMYrvsGHU3P-103" target="E3f_pJLwGpMYrvsGHU3P-154" edge="1">
          <mxGeometry width="50" height="50" relative="1" as="geometry">
            <mxPoint x="7" y="664" as="sourcePoint" />
            <mxPoint x="187" y="694" as="targetPoint" />
            <Array as="points">
              <mxPoint x="327" y="544" />
              <mxPoint x="237" y="624" />
            </Array>
          </mxGeometry>
        </mxCell>
        <mxCell id="E3f_pJLwGpMYrvsGHU3P-171" value="VideoMedia API" style="edgeLabel;html=1;align=center;verticalAlign=middle;resizable=0;points=[];" parent="E3f_pJLwGpMYrvsGHU3P-157" vertex="1" connectable="0">
          <mxGeometry x="-0.6488" y="3" relative="1" as="geometry">
            <mxPoint as="offset" />
          </mxGeometry>
        </mxCell>
        <mxCell id="E3f_pJLwGpMYrvsGHU3P-158" value="" style="curved=1;endArrow=classic;html=1;rounded=0;entryX=1;entryY=0;entryDx=0;entryDy=0;exitX=0.75;exitY=1;exitDx=0;exitDy=0;" parent="1" source="E3f_pJLwGpMYrvsGHU3P-105" target="E3f_pJLwGpMYrvsGHU3P-154" edge="1">
          <mxGeometry width="50" height="50" relative="1" as="geometry">
            <mxPoint x="-103" y="714" as="sourcePoint" />
            <mxPoint x="-53" y="664" as="targetPoint" />
            <Array as="points">
              <mxPoint x="207" y="584" />
              <mxPoint x="197" y="614" />
              <mxPoint x="177" y="644" />
            </Array>
          </mxGeometry>
        </mxCell>
        <mxCell id="E3f_pJLwGpMYrvsGHU3P-170" value="AudioMedia API" style="edgeLabel;html=1;align=center;verticalAlign=middle;resizable=0;points=[];" parent="E3f_pJLwGpMYrvsGHU3P-158" vertex="1" connectable="0">
          <mxGeometry x="-0.5247" y="-5" relative="1" as="geometry">
            <mxPoint as="offset" />
          </mxGeometry>
        </mxCell>
        <mxCell id="E3f_pJLwGpMYrvsGHU3P-159" value="" style="curved=1;endArrow=classic;html=1;rounded=0;exitX=0.75;exitY=1;exitDx=0;exitDy=0;entryX=0.5;entryY=0;entryDx=0;entryDy=0;" parent="1" source="E3f_pJLwGpMYrvsGHU3P-113" target="E3f_pJLwGpMYrvsGHU3P-154" edge="1">
          <mxGeometry width="50" height="50" relative="1" as="geometry">
            <mxPoint x="-103" y="714" as="sourcePoint" />
            <mxPoint x="-193" y="824" as="targetPoint" />
            <Array as="points">
              <mxPoint x="67" y="564" />
              <mxPoint x="107" y="594" />
              <mxPoint x="147" y="634" />
            </Array>
          </mxGeometry>
        </mxCell>
        <mxCell id="E3f_pJLwGpMYrvsGHU3P-169" value="Message API" style="edgeLabel;html=1;align=center;verticalAlign=middle;resizable=0;points=[];" parent="E3f_pJLwGpMYrvsGHU3P-159" vertex="1" connectable="0">
          <mxGeometry x="-0.2607" relative="1" as="geometry">
            <mxPoint as="offset" />
          </mxGeometry>
        </mxCell>
        <mxCell id="E3f_pJLwGpMYrvsGHU3P-160" value="" style="curved=1;endArrow=classic;html=1;rounded=0;entryX=0;entryY=0;entryDx=0;entryDy=0;exitX=0.864;exitY=1.015;exitDx=0;exitDy=0;exitPerimeter=0;" parent="1" source="E3f_pJLwGpMYrvsGHU3P-111" target="E3f_pJLwGpMYrvsGHU3P-154" edge="1">
          <mxGeometry width="50" height="50" relative="1" as="geometry">
            <mxPoint x="-143" y="674" as="sourcePoint" />
            <mxPoint x="-93" y="624" as="targetPoint" />
            <Array as="points">
              <mxPoint x="17" y="614" />
              <mxPoint x="107" y="614" />
            </Array>
          </mxGeometry>
        </mxCell>
        <mxCell id="E3f_pJLwGpMYrvsGHU3P-168" value="Cloud API" style="edgeLabel;html=1;align=center;verticalAlign=middle;resizable=0;points=[];" parent="E3f_pJLwGpMYrvsGHU3P-160" vertex="1" connectable="0">
          <mxGeometry x="-0.4775" y="4" relative="1" as="geometry">
            <mxPoint y="-1" as="offset" />
          </mxGeometry>
        </mxCell>
        <mxCell id="E3f_pJLwGpMYrvsGHU3P-161" value="" style="curved=1;endArrow=classic;html=1;rounded=0;exitX=0.921;exitY=1.017;exitDx=0;exitDy=0;exitPerimeter=0;entryX=0.11;entryY=0.226;entryDx=0;entryDy=0;entryPerimeter=0;" parent="1" source="E3f_pJLwGpMYrvsGHU3P-109" target="E3f_pJLwGpMYrvsGHU3P-154" edge="1">
          <mxGeometry width="50" height="50" relative="1" as="geometry">
            <mxPoint x="-103" y="664" as="sourcePoint" />
            <mxPoint x="127" y="684" as="targetPoint" />
            <Array as="points">
              <mxPoint x="-163" y="564" />
            </Array>
          </mxGeometry>
        </mxCell>
        <mxCell id="E3f_pJLwGpMYrvsGHU3P-167" value="Auth API" style="edgeLabel;html=1;align=center;verticalAlign=middle;resizable=0;points=[];" parent="E3f_pJLwGpMYrvsGHU3P-161" vertex="1" connectable="0">
          <mxGeometry x="-0.5224" y="-5" relative="1" as="geometry">
            <mxPoint as="offset" />
          </mxGeometry>
        </mxCell>
        <mxCell id="E3f_pJLwGpMYrvsGHU3P-163" value="" style="curved=1;endArrow=classic;html=1;rounded=0;exitX=0.5;exitY=1;exitDx=0;exitDy=0;entryX=0.5;entryY=1;entryDx=0;entryDy=0;" parent="1" source="E3f_pJLwGpMYrvsGHU3P-37" target="E3f_pJLwGpMYrvsGHU3P-154" edge="1">
          <mxGeometry width="50" height="50" relative="1" as="geometry">
            <mxPoint x="-193" y="864" as="sourcePoint" />
            <mxPoint x="137" y="714" as="targetPoint" />
            <Array as="points">
              <mxPoint x="-483" y="794" />
              <mxPoint x="-393" y="824" />
              <mxPoint x="47" y="834" />
            </Array>
          </mxGeometry>
        </mxCell>
        <mxCell id="E3f_pJLwGpMYrvsGHU3P-164" value="" style="curved=1;endArrow=classic;html=1;rounded=0;exitX=0.25;exitY=1;exitDx=0;exitDy=0;entryX=0;entryY=1;entryDx=0;entryDy=0;" parent="1" source="E3f_pJLwGpMYrvsGHU3P-39" target="E3f_pJLwGpMYrvsGHU3P-154" edge="1">
          <mxGeometry width="50" height="50" relative="1" as="geometry">
            <mxPoint x="-253" y="814" as="sourcePoint" />
            <mxPoint x="127" y="714" as="targetPoint" />
            <Array as="points">
              <mxPoint x="-313" y="804" />
              <mxPoint x="-73" y="794" />
              <mxPoint x="47" y="774" />
            </Array>
          </mxGeometry>
        </mxCell>
        <mxCell id="E3f_pJLwGpMYrvsGHU3P-165" value="" style="curved=1;endArrow=classic;html=1;rounded=0;exitX=0.75;exitY=0;exitDx=0;exitDy=0;entryX=0.008;entryY=0.71;entryDx=0;entryDy=0;entryPerimeter=0;" parent="1" source="E3f_pJLwGpMYrvsGHU3P-35" target="E3f_pJLwGpMYrvsGHU3P-154" edge="1">
          <mxGeometry width="50" height="50" relative="1" as="geometry">
            <mxPoint x="-93" y="724" as="sourcePoint" />
            <mxPoint x="117" y="704" as="targetPoint" />
            <Array as="points">
              <mxPoint x="-33" y="674" />
            </Array>
          </mxGeometry>
        </mxCell>
        <mxCell id="E3f_pJLwGpMYrvsGHU3P-162" value="" style="curved=1;endArrow=classic;html=1;rounded=0;exitX=0.856;exitY=1.019;exitDx=0;exitDy=0;exitPerimeter=0;entryX=0;entryY=0.5;entryDx=0;entryDy=0;" parent="1" source="E3f_pJLwGpMYrvsGHU3P-107" target="E3f_pJLwGpMYrvsGHU3P-154" edge="1">
          <mxGeometry width="50" height="50" relative="1" as="geometry">
            <mxPoint x="37" y="634" as="sourcePoint" />
            <mxPoint x="87" y="584" as="targetPoint" />
            <Array as="points">
              <mxPoint x="17" y="654" />
            </Array>
          </mxGeometry>
        </mxCell>
        <mxCell id="E3f_pJLwGpMYrvsGHU3P-166" value="DataAccess API" style="edgeLabel;html=1;align=center;verticalAlign=middle;resizable=0;points=[];" parent="E3f_pJLwGpMYrvsGHU3P-162" vertex="1" connectable="0">
          <mxGeometry x="-0.528" y="-1" relative="1" as="geometry">
            <mxPoint as="offset" />
          </mxGeometry>
        </mxCell>
        <mxCell id="E3f_pJLwGpMYrvsGHU3P-172" value="" style="ellipse;html=1;shape=startState;fillColor=none;strokeColor=#000000;" parent="1" vertex="1">
          <mxGeometry x="207" y="784" width="30" height="30" as="geometry" />
        </mxCell>
        <mxCell id="E3f_pJLwGpMYrvsGHU3P-174" value="" style="endArrow=classic;html=1;rounded=0;exitX=1;exitY=1;exitDx=0;exitDy=0;entryX=0.238;entryY=0.28;entryDx=0;entryDy=0;entryPerimeter=0;" parent="1" source="E3f_pJLwGpMYrvsGHU3P-154" target="E3f_pJLwGpMYrvsGHU3P-172" edge="1">
          <mxGeometry width="50" height="50" relative="1" as="geometry">
            <mxPoint x="177" y="834" as="sourcePoint" />
            <mxPoint x="227" y="784" as="targetPoint" />
          </mxGeometry>
        </mxCell>
        <mxCell id="E3f_pJLwGpMYrvsGHU3P-178" value="Database Interface" style="edgeLabel;html=1;align=center;verticalAlign=middle;resizable=0;points=[];" parent="E3f_pJLwGpMYrvsGHU3P-174" vertex="1" connectable="0">
          <mxGeometry x="0.0373" y="-1" relative="1" as="geometry">
            <mxPoint y="1" as="offset" />
          </mxGeometry>
        </mxCell>
        <mxCell id="E3f_pJLwGpMYrvsGHU3P-175" value="" style="endArrow=classic;html=1;rounded=0;entryX=0.004;entryY=0.378;entryDx=0;entryDy=0;entryPerimeter=0;exitX=0.487;exitY=0.878;exitDx=0;exitDy=0;exitPerimeter=0;" parent="1" source="E3f_pJLwGpMYrvsGHU3P-172" target="E3f_pJLwGpMYrvsGHU3P-61" edge="1">
          <mxGeometry width="50" height="50" relative="1" as="geometry">
            <mxPoint x="222" y="814" as="sourcePoint" />
            <mxPoint x="290" y="892" as="targetPoint" />
            <Array as="points">
              <mxPoint x="222" y="898" />
            </Array>
          </mxGeometry>
        </mxCell>
        <mxCell id="E3f_pJLwGpMYrvsGHU3P-179" value="Database" style="edgeLabel;html=1;align=center;verticalAlign=middle;resizable=0;points=[];" parent="E3f_pJLwGpMYrvsGHU3P-175" vertex="1" connectable="0">
          <mxGeometry x="-0.3975" relative="1" as="geometry">
            <mxPoint as="offset" />
          </mxGeometry>
        </mxCell>
        <mxCell id="E3f_pJLwGpMYrvsGHU3P-176" value="DATABASE INTERFACE" style="text;html=1;align=center;verticalAlign=middle;resizable=0;points=[];autosize=1;strokeColor=none;fillColor=none;" parent="1" vertex="1">
          <mxGeometry x="227" y="784" width="160" height="30" as="geometry" />
        </mxCell>
        <mxCell id="E3f_pJLwGpMYrvsGHU3P-177" value="BACKEND API" style="text;html=1;align=center;verticalAlign=middle;resizable=0;points=[];autosize=1;strokeColor=none;fillColor=none;" parent="1" vertex="1">
          <mxGeometry x="177" y="694" width="100" height="30" as="geometry" />
        </mxCell>
      </root>
    </mxGraphModel>
  </diagram>
</mxfile>
